<svg width="37" height="41" viewBox="0 0 37 41" fill="none" xmlns="http://www.w3.org/2000/svg">
<path d="M29.9547 12.6927L14.8566 38.7815C13.3267 41.4253 9.93828 40.6809 9.04373 37.4948L1.506 10.6982C1.29985 10.1324 1.21903 9.5206 1.27025 8.91337C1.32148 8.30629 1.50326 7.72133 1.80052 7.20713C2.09778 6.69307 2.50194 6.26445 2.97946 5.95713C3.45698 5.64982 3.99409 5.47245 4.5462 5.43985L27.1809 6.15192C29.8675 6.23625 31.4846 10.0489 29.9547 12.6927Z" fill="#1DACE3"/>
<path d="M34.1481 20.6126L8.03752 36.6621C7.44019 37.029 6.76257 37.2068 6.0794 37.1759C5.39624 37.1451 4.73408 36.9068 4.16594 36.4872C3.59779 36.0677 3.14574 35.4833 2.85963 34.7984C2.57352 34.1136 2.46447 33.3549 2.54451 32.606L5.53224 4.65486C5.60105 4.01142 5.80736 3.39509 6.13422 2.85655C6.46111 2.31816 6.8992 1.873 7.41248 1.55759C7.92577 1.24233 8.49958 1.06578 9.08677 1.04274C9.67394 1.0197 10.2577 1.15069 10.79 1.42481L33.9131 13.3336C34.531 13.6535 35.057 14.1551 35.4331 14.7832C35.8094 15.4114 36.0212 16.1416 36.0455 16.8939C36.0698 17.6463 35.9056 18.3914 35.5709 19.0475C35.236 19.7035 34.7438 20.245 34.1481 20.6126Z" fill="#FB6908"/>
<path d="M5.44413 5.47261L3.95469 19.4061L8.69559 36.2538L20.5212 28.9875L29.9547 12.6927C30.1604 12.3333 30.3142 11.9409 30.4104 11.5294L19.5041 5.91219L5.44413 5.47261Z" fill="#001A49"/>
</svg>
